<svg width="56" height="56" viewBox="0 0 56 56" fill="none" xmlns="http://www.w3.org/2000/svg">
<g clip-path="url(#paint0_angular_136_1517_clip_path)" data-figma-skip-parse="true"><g transform="matrix(0 0.027746 -0.027746 0 28.2539 28.254)"><foreignObject x="-1020" y="-1020" width="2040" height="2040"><div xmlns="http://www.w3.org/1999/xhtml" style="background:conic-gradient(from 90deg,rgba(255, 255, 255, 1) 0deg,rgba(255, 255, 255, 1) 63.243deg,rgba(255, 255, 255, 0) 360deg);height:100%;width:100%;opacity:1"></div></foreignObject></g></g><path d="M55.9999 28.254C55.9999 43.5777 43.5776 56 28.2539 56C12.9301 56 0.507812 43.5777 0.507812 28.254C0.507812 12.9303 12.9301 0.507935 28.2539 0.507935C43.5776 0.507935 55.9999 12.9303 55.9999 28.254ZM8.80462 28.254C8.80462 38.9955 17.5123 47.7032 28.2539 47.7032C38.9954 47.7032 47.7031 38.9955 47.7031 28.254C47.7031 17.5125 38.9954 8.80474 28.2539 8.80474C17.5123 8.80474 8.80462 17.5125 8.80462 28.254Z" data-figma-gradient-fill="{&#34;type&#34;:&#34;GRADIENT_ANGULAR&#34;,&#34;stops&#34;:[{&#34;color&#34;:{&#34;r&#34;:1.0,&#34;g&#34;:1.0,&#34;b&#34;:1.0,&#34;a&#34;:1.0},&#34;position&#34;:0.0},{&#34;color&#34;:{&#34;r&#34;:1.0,&#34;g&#34;:1.0,&#34;b&#34;:1.0,&#34;a&#34;:1.0},&#34;position&#34;:0.17567500472068787},{&#34;color&#34;:{&#34;r&#34;:1.0,&#34;g&#34;:1.0,&#34;b&#34;:1.0,&#34;a&#34;:0.0},&#34;position&#34;:1.0}],&#34;stopsVar&#34;:[],&#34;transform&#34;:{&#34;m00&#34;:3.3979099373603050e-15,&#34;m01&#34;:-55.492076873779297,&#34;m02&#34;:55.999889373779297,&#34;m10&#34;:55.492076873779297,&#34;m11&#34;:3.3979099373603050e-15,&#34;m12&#34;:0.50793457031250},&#34;opacity&#34;:1.0,&#34;blendMode&#34;:&#34;NORMAL&#34;,&#34;visible&#34;:true}"/>
<circle cx="28.5313" cy="51.8381" r="4.16191" fill="white"/>
<defs>
<clipPath id="paint0_angular_136_1517_clip_path"><path d="M55.9999 28.254C55.9999 43.5777 43.5776 56 28.2539 56C12.9301 56 0.507812 43.5777 0.507812 28.254C0.507812 12.9303 12.9301 0.507935 28.2539 0.507935C43.5776 0.507935 55.9999 12.9303 55.9999 28.254ZM8.80462 28.254C8.80462 38.9955 17.5123 47.7032 28.2539 47.7032C38.9954 47.7032 47.7031 38.9955 47.7031 28.254C47.7031 17.5125 38.9954 8.80474 28.2539 8.80474C17.5123 8.80474 8.80462 17.5125 8.80462 28.254Z"/></clipPath></defs>
</svg>
